inDegrees=no
num_controls=7
num_derivatives=13
num_iterations=167
num_multipliers=7
num_parameters=0
num_slacks=7
num_states=26
objective=5.593122
objective_accelerations=0.622310
objective_balance=0.005713
objective_effort=0.465503
objective_height=4.452970
objective_ligament=0.046625
solver_duration=1408.033378
status=Solve_Succeeded
success=true
DataType=double
version=3
OpenSimVersion=4.4-2022-07-23-0e9fedc
endheader
time	/jointset/ground_pelvis/pelvis_tilt/value	/jointset/ground_pelvis/pelvis_tx/value	/jointset/ground_pelvis/pelvis_ty/value	/jointset/hip_r/hip_flexion_r/value	/jointset/hip_r/hip_adduction_r/value	/jointset/hip_r/hip_rotation_r/value	/jointset/back/lumbar_extension/value	/jointset/patellofemoral_r/patellar_flexion_r/value	/jointset/knee_r/knee_flexion_r/value	/jointset/knee_r/knee_adduction_r/value	/jointset/knee_r/knee_rotation_r/value	/jointset/ankle_r/ankle_angle_r/value	/jointset/subtalar_r/subtalar_angle_r/value	/jointset/ground_pelvis/pelvis_tilt/speed	/jointset/ground_pelvis/pelvis_tx/speed	/jointset/ground_pelvis/pelvis_ty/speed	/jointset/hip_r/hip_flexion_r/speed	/jointset/hip_r/hip_adduction_r/speed	/jointset/hip_r/hip_rotation_r/speed	/jointset/back/lumbar_extension/speed	/jointset/patellofemoral_r/patellar_flexion_r/speed	/jointset/knee_r/knee_flexion_r/speed	/jointset/knee_r/knee_adduction_r/speed	/jointset/knee_r/knee_rotation_r/speed	/jointset/ankle_r/ankle_angle_r/speed	/jointset/subtalar_r/subtalar_angle_r/speed	/forceset/tau_hip_flexion_r	/forceset/tau_hip_adduction_r	/forceset/tau_hip_rotation_r	/forceset/tau_knee_flexion_r	/forceset/tau_ankle_angle_r	/forceset/tau_subtalar_angle_r	/forceset/tau_lumbar_extension	lambda_cid13_p0	lambda_cid14_p0	lambda_cid14_p1	lambda_cid14_p2	lambda_cid14_p3	lambda_cid14_p4	lambda_cid14_p5	/jointset/ground_pelvis/pelvis_tilt/accel	/jointset/ground_pelvis/pelvis_tx/accel	/jointset/ground_pelvis/pelvis_ty/accel	/jointset/hip_r/hip_flexion_r/accel	/jointset/hip_r/hip_adduction_r/accel	/jointset/hip_r/hip_rotation_r/accel	/jointset/back/lumbar_extension/accel	/jointset/patellofemoral_r/patellar_flexion_r/accel	/jointset/knee_r/knee_flexion_r/accel	/jointset/knee_r/knee_adduction_r/accel	/jointset/knee_r/knee_rotation_r/accel	/jointset/ankle_r/ankle_angle_r/accel	/jointset/subtalar_r/subtalar_angle_r/accel	gamma_cid13_p0	gamma_cid14_p0	gamma_cid14_p1	gamma_cid14_p2	gamma_cid14_p3	gamma_cid14_p4	gamma_cid14_p5
0.5	-0.132528732152165	0.0189473031282991	0.8028236681676963	0.9045978046499135	-0.2180994674845916	-0.1350776405222124	-0.6502054479861036	0.9692725442374874	0.9692725442375211	-0.07193446594985756	0.1745272167963813	0.2932909094730625	0.1456848344577397	-0.3567076449937163	-0.2069837995122521	-0.5188096716730451	1.896426621209906	-0.04141647445333815	0.2017706819439262	-0.7360570905814355	1.971802092630995	1.971802092631007	-0.4053229939041267	0.0006350868813175617	0.529915375702212	0.1501633940207766	-0.1947571035804572	0.003911187171398243	0.01772833930976077	-0.301558376790531	0.01791629373372862	0.002411569522890073	0.2397309391005221	-7.86698099437143	-36.70904401150283	-4.739832548841302	0.4462038850582992	-5.677421347360161	-641.5985251825969	65.60260616709388	0.384648472016452	0.6394794320598042	-0.4212106924204228	-1.342810265045977	-0.1651082756957164	-0.4127086800439048	1.879113175344094	-1.365386759434719	-1.365386759434717	0.51930299387344	-0.092041842627951	-0.5662463485447062	-0.3384077245207973	-8.219824520082619e-08	7.870111583125823e-08	1.73768530479229e-06	2.586810334942261e-07	-2.1851138878569e-07	-1.480394260636959e-07	1.167135235426777e-06
0.51	-0.1360758313796712	0.01690960876832697	0.7976157157955901	0.9234920493583824	-0.2185223477605041	-0.133082672553295	-0.6574714752297041	0.9889191886576243	0.9889191886575601	-0.07596181161996021	0.1745314043686113	0.2985606656505324	0.1471683083089077	-0.3526543368629839	-0.200538551323159	-0.5226632956781624	1.882166438604858	-0.04316458695753651	0.1972339552668299	-0.7170666772340506	1.957261190871414	1.957261190871425	-0.400073834428499	0.0002334747075150107	0.5239517119552581	0.1464739904237818	-0.201082041614384	0.004182926946765341	0.0180767496702669	-0.3068418259588367	0.01713249670621662	0.003083438391257005	0.2457051564764377	-6.931531530673859	-37.25913112669869	-4.673199887141997	0.5827509030371187	-5.637215825766697	-646.7306631550337	66.38651224381613	0.4243678973329091	0.6494750423544224	-0.3498388410049618	-1.505986974656647	-0.1802315744386297	-0.472596270943456	1.921257550206006	-1.538267783016944	-1.538267783017061	0.5388273799856543	-0.009409600905558691	-0.6241032716278233	-0.3924552594765733	-6.430101835650555e-08	1.199633452621585e-07	1.862857412227734e-06	5.572976633456058e-07	-2.527699767485791e-07	-1.271593556677071e-07	1.281270502605288e-06
0.52	-0.139580658343128	0.01493685239624971	0.7923727470661432	0.9422360192975228	-0.218962822928793	-0.1311327601730102	-0.6645451479126756	1.008412458880338	1.008412458880315	-0.07993444470419712	0.1745325380821097	0.3037682498137595	0.1486132384076682	-0.3482531921829836	-0.1939962019332787	-0.5258129431411807	1.866371667342921	-0.04493545292803474	0.1927595642136701	-0.697586178455844	1.941127253159948	1.941127253159959	-0.3943804767297373	2.431468775161399e-05	0.5174809728540202	0.1424546435392686	-0.2074069796482425	0.004454666722207631	0.01842516003165127	-0.3121252751270437	0.01634869967871467	0.003755307259724432	0.2516793738524071	-6.058042147767036	-37.80565433682687	-4.596987597986679	0.7075420615583057	-5.629768204003988	-651.8379802979822	67.19953950642594	0.4542157818701654	0.6588996722171624	-0.2804153840006727	-1.649727996423816	-0.1696589689559815	-0.4002415552573084	1.977130261508462	-1.68399394981148	-1.683993949811467	0.6081426385003083	-0.05355141181905063	-0.6676614194015893	-0.4043963820250574	-5.098183752284264e-08	1.312606431646402e-07	1.790992681112613e-06	6.279777916532919e-07	-2.518643141550305e-07	-1.148854978126775e-07	1.273451531601473e-06
0.53	-0.1430397771447872	0.01302994003933858	0.7871018198073352	0.9608145448780303	-0.2194209166804391	-0.1292272740527327	-0.671421622876707	1.027736607732834	1.027736607732791	-0.08384840576626	0.1745322271078079	0.3089087499492587	0.1500166687072036	-0.3435119003391357	-0.1873757333876222	-0.5282521824614136	1.849084631784655	-0.04667504074476889	0.1883500601721421	-0.6776378694156255	1.923451408651627	1.923451408651622	-0.3883644752905339	-7.289630064023471e-05	0.5105476955652164	0.1381977560067579	-0.2137078972638449	0.005281146832768809	0.01868749928565214	-0.3173842149553319	0.01548455457431716	0.004040797356602469	0.2575901275880587	-5.246994313154365	-38.41933939715724	-4.733051316289596	0.9035399533161774	-5.508496122392727	-657.0196771125404	67.55923724163839	0.4929052268824071	0.6651505768848104	-0.2076509699148356	-1.805493142191803	-0.1746858744985626	-0.4595127204785841	2.014322965580087	-1.847037207186089	-1.847037207188359	0.6056492858675455	0.01441970109956706	-0.7169117625896242	-0.4410308431433094	-4.001542533146215e-08	1.403557951576049e-07	1.723749241583616e-06	6.746411638975118e-07	-2.509785051868275e-07	-1.037971157166772e-07	1.267517281463939e-06
